# xmcd CD database file
#
# Track frame offsets:
#	182
#	22845
#	75447
#	100647
#	135535
#	163827
#	194382
#
# Disc length: 3104 seconds
#
# Revision: 0
# Processed by: cddbd v1.4PL0 Copyright (c) Steve Scherf et al.
# Submitted via: CDex 1.50beta10
#
DISCID=480c1e07
DTITLE=Kratochvil-Ackerman-Havel - Chiaroscuro - Serosvit
DYEAR=1993
DGENRE=Jazz
TTITLE0=Desert bird
TTITLE1=Pool
TTITLE2=Man of solitude
TTITLE3=Transparent surface
TTITLE4=Chiaroscuro
TTITLE5=Meadow harp
TTITLE6=Madonna
EXTD=YEAR: 1993
EXTT0=
EXTT1=
EXTT2=
EXTT3=
EXTT4=
EXTT5=
EXTT6=
PLAYORDER=
